<svg xmlns="http://www.w3.org/2000/svg" width="24" height="24" fill="none"><rect width="14.5" height="14.5" x="4.75" y="4.75" stroke="#202122" stroke-width="1.5" rx="1.25"/><path fill="#202122" d="M8 8.75a.75.75 0 1 1 1.5 0 .75.75 0 0 1-1.5 0ZM11 8.75a.75.75 0 0 1 .75-.75h3.5a.75.75 0 0 1 0 1.5h-3.5a.75.75 0 0 1-.75-.75ZM8 11.75a.75.75 0 1 1 1.5 0 .75.75 0 0 1-1.5 0ZM11 11.75a.75.75 0 0 1 .75-.75h3.5a.75.75 0 0 1 0 1.5h-3.5a.75.75 0 0 1-.75-.75ZM8 14.75a.75.75 0 1 1 1.5 0 .75.75 0 0 1-1.5 0ZM11 14.75a.75.75 0 0 1 .75-.75h3.5a.75.75 0 0 1 0 1.5h-3.5a.75.75 0 0 1-.75-.75Z"/></svg>