<svg width="24" height="24" viewBox="0 0 24 24" fill="none" xmlns="http://www.w3.org/2000/svg">
<rect x="4.75" y="4.75" width="14.5" height="14.5" rx="1.25" stroke="#202122" stroke-width="1.5"/>
<path d="M8 8.75C8 8.33579 8.33579 8 8.75 8C9.16421 8 9.5 8.33579 9.5 8.75C9.5 9.16421 9.16421 9.5 8.75 9.5C8.33579 9.5 8 9.16421 8 8.75Z" fill="#202122"/>
<path d="M11 8.75C11 8.33579 11.3358 8 11.75 8H15.25C15.6642 8 16 8.33579 16 8.75C16 9.16421 15.6642 9.5 15.25 9.5H11.75C11.3358 9.5 11 9.16421 11 8.75Z" fill="#202122"/>
<path d="M8 11.75C8 11.3358 8.33579 11 8.75 11C9.16421 11 9.5 11.3358 9.5 11.75C9.5 12.1642 9.16421 12.5 8.75 12.5C8.33579 12.5 8 12.1642 8 11.75Z" fill="#202122"/>
<path d="M11 11.75C11 11.3358 11.3358 11 11.75 11H15.25C15.6642 11 16 11.3358 16 11.75C16 12.1642 15.6642 12.5 15.25 12.5H11.75C11.3358 12.5 11 12.1642 11 11.75Z" fill="#202122"/>
<path d="M8 14.75C8 14.3358 8.33579 14 8.75 14C9.16421 14 9.5 14.3358 9.5 14.75C9.5 15.1642 9.16421 15.5 8.75 15.5C8.33579 15.5 8 15.1642 8 14.75Z" fill="#202122"/>
<path d="M11 14.75C11 14.3358 11.3358 14 11.75 14H15.25C15.6642 14 16 14.3358 16 14.75C16 15.1642 15.6642 15.5 15.25 15.5H11.75C11.3358 15.5 11 15.1642 11 14.75Z" fill="#202122"/>
</svg>
