<svg xmlns="http://www.w3.org/2000/svg" width="24" height="24" fill="none"><path fill="#202122" d="M5.343 13.06c-.373 0-.69-.13-.95-.392A1.293 1.293 0 0 1 4 11.717c0-.373.13-.69.392-.951.261-.262.578-.393.951-.393s.69.131.951.393c.262.26.393.578.393.95 0 .374-.131.69-.393.952-.26.261-.578.392-.95.392Zm0-5.373c-.373 0-.69-.131-.95-.393A1.293 1.293 0 0 1 4 6.344c0-.374.13-.69.392-.952.261-.261.578-.392.951-.392s.69.13.951.392c.262.261.393.578.393.951s-.131.69-.393.951c-.26.262-.578.393-.95.393Zm0 10.746c-.373 0-.69-.13-.95-.392a1.293 1.293 0 0 1-.393-.95c0-.374.13-.691.392-.952.261-.261.578-.392.951-.392s.69.13.951.392c.262.26.393.578.393.951s-.131.69-.393.951c-.26.262-.578.392-.95.392Zm4.03-.447a.864.864 0 0 1-.637-.258.864.864 0 0 1-.258-.638c0-.254.086-.466.258-.638a.864.864 0 0 1 .637-.258h9.852c.253 0 .466.087.637.258a.865.865 0 0 1 .258.638.864.864 0 0 1-.258.638.864.864 0 0 1-.637.258H9.373Zm0-5.374a.864.864 0 0 1-.637-.258.864.864 0 0 1-.258-.637c0-.254.086-.467.258-.639a.866.866 0 0 1 .637-.257h9.852c.253 0 .466.086.637.257a.867.867 0 0 1 .258.639.865.865 0 0 1-.258.637.864.864 0 0 1-.637.258H9.373Zm0-5.373a.866.866 0 0 1-.637-.257.867.867 0 0 1-.258-.639c0-.253.086-.466.258-.638a.866.866 0 0 1 .637-.257h9.852c.253 0 .466.085.637.257a.867.867 0 0 1 .258.638.867.867 0 0 1-.258.639.866.866 0 0 1-.637.257H9.373Z"/></svg>