<svg xmlns="http://www.w3.org/2000/svg" width="24" height="24" fill="none"><path fill="#202122" d="M15.67 14.15h-.8l-.284-.273a6.589 6.589 0 0 0 1.5-5.413c-.476-2.818-2.828-5.068-5.666-5.413a6.593 6.593 0 0 0-7.369 7.37c.345 2.837 2.595 5.189 5.413 5.665a6.589 6.589 0 0 0 5.413-1.5l.273.284v.8l4.308 4.309a1.07 1.07 0 0 0 1.51 0 1.07 1.07 0 0 0 0-1.51l-4.297-4.319Zm-6.081 0A4.555 4.555 0 0 1 5.028 9.59a4.555 4.555 0 0 1 4.561-4.561 4.555 4.555 0 0 1 4.561 4.561A4.555 4.555 0 0 1 9.59 14.15Z"/></svg>